<svg xmlns="http://www.w3.org/2000/svg" xmlns:xlink="http://www.w3.org/1999/xlink" width="150" zoomAndPan="magnify" viewBox="0 0 112.5 33.749998" height="45" preserveAspectRatio="xMidYMid meet" version="1.0"><defs><g/><clipPath id="23a8270b8b"><path d="M 0.164062 0 L 111.839844 0 L 111.839844 33.5 L 0.164062 33.5 Z M 0.164062 0 " clip-rule="nonzero"/></clipPath><clipPath id="d478c96721"><path d="M 2.101562 1.847656 L 32.558594 1.847656 L 32.558594 32.300781 L 2.101562 32.300781 Z M 2.101562 1.847656 " clip-rule="nonzero"/></clipPath><clipPath id="0bbcf8f882"><path d="M 17.328125 1.847656 C 8.917969 1.847656 2.101562 8.664062 2.101562 17.074219 C 2.101562 25.484375 8.917969 32.300781 17.328125 32.300781 C 25.738281 32.300781 32.558594 25.484375 32.558594 17.074219 C 32.558594 8.664062 25.738281 1.847656 17.328125 1.847656 Z M 17.328125 1.847656 " clip-rule="nonzero"/></clipPath><clipPath id="535aeb353d"><path d="M 98 9 L 111.839844 9 L 111.839844 24 L 98 24 Z M 98 9 " clip-rule="nonzero"/></clipPath></defs><g clip-path="url(#23a8270b8b)"><path fill="#ffffff" d="M 0.164062 0 L 111.839844 0 L 111.839844 33.5 L 0.164062 33.5 Z M 0.164062 0 " fill-opacity="1" fill-rule="nonzero"/><path fill="#ffffff" d="M 0.164062 0 L 111.839844 0 L 111.839844 33.5 L 0.164062 33.5 Z M 0.164062 0 " fill-opacity="1" fill-rule="nonzero"/></g><g clip-path="url(#d478c96721)"><g clip-path="url(#0bbcf8f882)"><path fill="#000101" d="M 2.101562 1.847656 L 32.558594 1.847656 L 32.558594 32.300781 L 2.101562 32.300781 Z M 2.101562 1.847656 " fill-opacity="1" fill-rule="nonzero"/></g></g><g fill="#ffffff" fill-opacity="1"><g transform="translate(6.432795, 27.04919)"><g><path d="M 8.203125 -9.828125 C 8.203125 -9.367188 8.269531 -8.867188 8.40625 -8.328125 C 8.539062 -7.796875 8.734375 -7.257812 8.984375 -6.71875 C 9.242188 -6.175781 9.5625 -5.660156 9.9375 -5.171875 C 10.320312 -4.679688 10.757812 -4.242188 11.25 -3.859375 C 11.75 -3.472656 12.296875 -3.164062 12.890625 -2.9375 C 13.492188 -2.707031 14.148438 -2.59375 14.859375 -2.59375 C 15.359375 -2.59375 15.820312 -2.648438 16.25 -2.765625 C 16.675781 -2.878906 17.078125 -3.035156 17.453125 -3.234375 C 17.828125 -3.429688 18.179688 -3.660156 18.515625 -3.921875 C 18.859375 -4.191406 19.203125 -4.476562 19.546875 -4.78125 L 20.09375 -4.265625 C 19.757812 -3.816406 19.332031 -3.328125 18.8125 -2.796875 C 18.300781 -2.273438 17.679688 -1.78125 16.953125 -1.3125 C 16.234375 -0.851562 15.382812 -0.46875 14.40625 -0.15625 C 13.4375 0.144531 12.332031 0.296875 11.09375 0.296875 C 9.851562 0.296875 8.644531 0.0703125 7.46875 -0.375 C 6.289062 -0.820312 5.242188 -1.492188 4.328125 -2.390625 C 3.410156 -3.296875 2.675781 -4.421875 2.125 -5.765625 C 1.582031 -7.109375 1.3125 -8.675781 1.3125 -10.46875 C 1.3125 -11.769531 1.472656 -12.960938 1.796875 -14.046875 C 2.128906 -15.128906 2.578125 -16.101562 3.140625 -16.96875 C 3.703125 -17.84375 4.359375 -18.609375 5.109375 -19.265625 C 5.859375 -19.929688 6.644531 -20.476562 7.46875 -20.90625 C 8.300781 -21.34375 9.148438 -21.671875 10.015625 -21.890625 C 10.878906 -22.117188 11.707031 -22.234375 12.5 -22.234375 C 13.5625 -22.234375 14.484375 -22.117188 15.265625 -21.890625 C 16.054688 -21.660156 16.710938 -21.351562 17.234375 -20.96875 C 17.753906 -20.582031 18.140625 -20.132812 18.390625 -19.625 C 18.648438 -19.125 18.78125 -18.59375 18.78125 -18.03125 C 18.78125 -17.363281 18.585938 -16.757812 18.203125 -16.21875 C 17.816406 -15.6875 17.300781 -15.21875 16.65625 -14.8125 Z M 12.5 -14.171875 C 12.6875 -14.285156 12.84375 -14.394531 12.96875 -14.5 C 13.09375 -14.613281 13.1875 -14.742188 13.25 -14.890625 C 13.320312 -15.046875 13.375 -15.234375 13.40625 -15.453125 C 13.445312 -15.671875 13.46875 -15.945312 13.46875 -16.28125 C 13.46875 -16.632812 13.425781 -17.03125 13.34375 -17.46875 C 13.269531 -17.90625 13.140625 -18.316406 12.953125 -18.703125 C 12.765625 -19.085938 12.53125 -19.40625 12.25 -19.65625 C 11.96875 -19.914062 11.625 -20.046875 11.21875 -20.046875 C 10.707031 -20.046875 10.269531 -19.890625 9.90625 -19.578125 C 9.539062 -19.273438 9.238281 -18.878906 9 -18.390625 C 8.769531 -17.910156 8.585938 -17.359375 8.453125 -16.734375 C 8.316406 -16.117188 8.210938 -15.492188 8.140625 -14.859375 C 8.066406 -14.234375 8.019531 -13.628906 8 -13.046875 C 7.988281 -12.472656 7.984375 -11.984375 7.984375 -11.578125 Z M 12.5 -14.171875 "/></g></g></g><g fill="#000101" fill-opacity="1"><g transform="translate(42.749999, 23.140662)"><g><path d="M 4.984375 -5.984375 C 4.984375 -5.703125 5.023438 -5.394531 5.109375 -5.0625 C 5.191406 -4.738281 5.3125 -4.410156 5.46875 -4.078125 C 5.625 -3.753906 5.816406 -3.441406 6.046875 -3.140625 C 6.273438 -2.847656 6.539062 -2.582031 6.84375 -2.34375 C 7.144531 -2.113281 7.476562 -1.925781 7.84375 -1.78125 C 8.207031 -1.644531 8.601562 -1.578125 9.03125 -1.578125 C 9.34375 -1.578125 9.628906 -1.609375 9.890625 -1.671875 C 10.148438 -1.742188 10.390625 -1.84375 10.609375 -1.96875 C 10.835938 -2.09375 11.054688 -2.234375 11.265625 -2.390625 C 11.472656 -2.546875 11.679688 -2.71875 11.890625 -2.90625 L 12.21875 -2.59375 C 12.019531 -2.320312 11.765625 -2.023438 11.453125 -1.703125 C 11.140625 -1.378906 10.757812 -1.078125 10.3125 -0.796875 C 9.875 -0.515625 9.359375 -0.28125 8.765625 -0.09375 C 8.171875 0.09375 7.5 0.1875 6.75 0.1875 C 5.988281 0.1875 5.25 0.0507812 4.53125 -0.21875 C 3.820312 -0.5 3.1875 -0.910156 2.625 -1.453125 C 2.070312 -2.003906 1.628906 -2.6875 1.296875 -3.5 C 0.960938 -4.320312 0.796875 -5.28125 0.796875 -6.375 C 0.796875 -7.15625 0.894531 -7.875 1.09375 -8.53125 C 1.289062 -9.195312 1.5625 -9.796875 1.90625 -10.328125 C 2.25 -10.859375 2.648438 -11.320312 3.109375 -11.71875 C 3.566406 -12.113281 4.046875 -12.441406 4.546875 -12.703125 C 5.046875 -12.972656 5.554688 -13.175781 6.078125 -13.3125 C 6.609375 -13.445312 7.117188 -13.515625 7.609375 -13.515625 C 8.242188 -13.515625 8.800781 -13.441406 9.28125 -13.296875 C 9.757812 -13.160156 10.15625 -12.972656 10.46875 -12.734375 C 10.789062 -12.503906 11.03125 -12.234375 11.1875 -11.921875 C 11.34375 -11.617188 11.421875 -11.300781 11.421875 -10.96875 C 11.421875 -10.5625 11.300781 -10.191406 11.0625 -9.859375 C 10.832031 -9.535156 10.519531 -9.253906 10.125 -9.015625 Z M 7.609375 -8.625 C 7.722656 -8.6875 7.816406 -8.75 7.890625 -8.8125 C 7.960938 -8.882812 8.019531 -8.960938 8.0625 -9.046875 C 8.101562 -9.140625 8.132812 -9.253906 8.15625 -9.390625 C 8.175781 -9.523438 8.1875 -9.691406 8.1875 -9.890625 C 8.1875 -10.109375 8.160156 -10.347656 8.109375 -10.609375 C 8.066406 -10.878906 7.988281 -11.128906 7.875 -11.359375 C 7.757812 -11.597656 7.613281 -11.796875 7.4375 -11.953125 C 7.269531 -12.109375 7.066406 -12.1875 6.828125 -12.1875 C 6.515625 -12.1875 6.242188 -12.09375 6.015625 -11.90625 C 5.796875 -11.71875 5.613281 -11.476562 5.46875 -11.1875 C 5.332031 -10.894531 5.222656 -10.554688 5.140625 -10.171875 C 5.054688 -9.796875 4.992188 -9.414062 4.953125 -9.03125 C 4.910156 -8.65625 4.882812 -8.289062 4.875 -7.9375 C 4.863281 -7.582031 4.859375 -7.285156 4.859375 -7.046875 Z M 7.609375 -8.625 "/></g></g></g><g fill="#000101" fill-opacity="1"><g transform="translate(55.118205, 23.140662)"><g><path d="M 12.75 -1.140625 C 12.75 -1.035156 12.726562 -0.90625 12.6875 -0.75 C 12.65625 -0.59375 12.570312 -0.441406 12.4375 -0.296875 C 12.300781 -0.160156 12.097656 -0.046875 11.828125 0.046875 C 11.566406 0.148438 11.207031 0.203125 10.75 0.203125 C 10.28125 0.203125 9.914062 0.144531 9.65625 0.03125 C 9.394531 -0.0703125 9.195312 -0.195312 9.0625 -0.34375 C 8.925781 -0.488281 8.835938 -0.640625 8.796875 -0.796875 C 8.765625 -0.953125 8.75 -1.078125 8.75 -1.171875 L 8.75 -10.375 C 8.75 -10.5 8.726562 -10.625 8.6875 -10.75 C 8.65625 -10.875 8.601562 -10.988281 8.53125 -11.09375 C 8.46875 -11.195312 8.382812 -11.28125 8.28125 -11.34375 C 8.175781 -11.414062 8.054688 -11.453125 7.921875 -11.453125 C 7.679688 -11.453125 7.445312 -11.382812 7.21875 -11.25 C 7 -11.113281 6.789062 -10.957031 6.59375 -10.78125 C 6.394531 -10.601562 6.222656 -10.425781 6.078125 -10.25 C 5.941406 -10.082031 5.84375 -9.957031 5.78125 -9.875 L 5.78125 -1.140625 C 5.78125 -1.035156 5.757812 -0.90625 5.71875 -0.75 C 5.6875 -0.59375 5.601562 -0.441406 5.46875 -0.296875 C 5.34375 -0.160156 5.144531 -0.046875 4.875 0.046875 C 4.613281 0.148438 4.253906 0.203125 3.796875 0.203125 C 3.328125 0.203125 2.960938 0.144531 2.703125 0.03125 C 2.441406 -0.0703125 2.238281 -0.195312 2.09375 -0.34375 C 1.957031 -0.488281 1.867188 -0.640625 1.828125 -0.796875 C 1.796875 -0.953125 1.78125 -1.078125 1.78125 -1.171875 L 1.78125 -11.21875 C 1.78125 -11.476562 1.722656 -11.695312 1.609375 -11.875 C 1.492188 -12.0625 1.296875 -12.15625 1.015625 -12.15625 C 0.867188 -12.15625 0.742188 -12.128906 0.640625 -12.078125 C 0.535156 -12.023438 0.421875 -11.953125 0.296875 -11.859375 L 0.03125 -12.1875 C 0.226562 -12.351562 0.445312 -12.515625 0.6875 -12.671875 C 0.9375 -12.835938 1.203125 -12.976562 1.484375 -13.09375 C 1.773438 -13.21875 2.085938 -13.316406 2.421875 -13.390625 C 2.753906 -13.472656 3.101562 -13.515625 3.46875 -13.515625 C 4.03125 -13.515625 4.46875 -13.421875 4.78125 -13.234375 C 5.09375 -13.046875 5.320312 -12.820312 5.46875 -12.5625 C 5.613281 -12.300781 5.703125 -12.03125 5.734375 -11.75 C 5.765625 -11.46875 5.78125 -11.234375 5.78125 -11.046875 C 6.1875 -11.503906 6.625 -11.914062 7.09375 -12.28125 C 7.289062 -12.4375 7.503906 -12.585938 7.734375 -12.734375 C 7.960938 -12.878906 8.195312 -13.007812 8.4375 -13.125 C 8.675781 -13.25 8.925781 -13.34375 9.1875 -13.40625 C 9.445312 -13.476562 9.707031 -13.515625 9.96875 -13.515625 C 10.476562 -13.515625 10.910156 -13.421875 11.265625 -13.234375 C 11.617188 -13.054688 11.90625 -12.835938 12.125 -12.578125 C 12.34375 -12.328125 12.5 -12.0625 12.59375 -11.78125 C 12.695312 -11.5 12.75 -11.253906 12.75 -11.046875 C 13.164062 -11.503906 13.601562 -11.914062 14.0625 -12.28125 C 14.257812 -12.4375 14.46875 -12.585938 14.6875 -12.734375 C 14.914062 -12.878906 15.148438 -13.007812 15.390625 -13.125 C 15.640625 -13.25 15.894531 -13.34375 16.15625 -13.40625 C 16.414062 -13.476562 16.675781 -13.515625 16.9375 -13.515625 C 17.4375 -13.515625 17.863281 -13.421875 18.21875 -13.234375 C 18.570312 -13.046875 18.859375 -12.800781 19.078125 -12.5 C 19.296875 -12.195312 19.453125 -11.851562 19.546875 -11.46875 C 19.648438 -11.09375 19.703125 -10.710938 19.703125 -10.328125 L 19.703125 -2.265625 C 19.703125 -2.191406 19.707031 -2.109375 19.71875 -2.015625 C 19.726562 -1.921875 19.75 -1.832031 19.78125 -1.75 C 19.8125 -1.664062 19.863281 -1.597656 19.9375 -1.546875 C 20.019531 -1.492188 20.117188 -1.46875 20.234375 -1.46875 C 20.398438 -1.46875 20.546875 -1.523438 20.671875 -1.640625 C 20.804688 -1.765625 20.929688 -1.882812 21.046875 -2 L 21.359375 -1.734375 C 21.234375 -1.546875 21.070312 -1.34375 20.875 -1.125 C 20.675781 -0.90625 20.4375 -0.695312 20.15625 -0.5 C 19.882812 -0.300781 19.566406 -0.132812 19.203125 0 C 18.847656 0.132812 18.445312 0.203125 18 0.203125 C 17.613281 0.203125 17.28125 0.148438 17 0.046875 C 16.71875 -0.046875 16.476562 -0.175781 16.28125 -0.34375 C 16.09375 -0.507812 15.945312 -0.707031 15.84375 -0.9375 C 15.75 -1.175781 15.703125 -1.425781 15.703125 -1.6875 L 15.703125 -10.375 C 15.703125 -10.5 15.6875 -10.625 15.65625 -10.75 C 15.625 -10.875 15.570312 -10.988281 15.5 -11.09375 C 15.4375 -11.195312 15.351562 -11.28125 15.25 -11.34375 C 15.144531 -11.414062 15.023438 -11.453125 14.890625 -11.453125 C 14.648438 -11.453125 14.414062 -11.382812 14.1875 -11.25 C 13.957031 -11.113281 13.742188 -10.957031 13.546875 -10.78125 C 13.347656 -10.601562 13.179688 -10.425781 13.046875 -10.25 C 12.910156 -10.082031 12.8125 -9.957031 12.75 -9.875 Z M 12.75 -1.140625 "/></g></g></g><g fill="#000101" fill-opacity="1"><g transform="translate(76.638412, 23.140662)"><g><path d="M 12.75 -1.140625 C 12.75 -1.035156 12.726562 -0.90625 12.6875 -0.75 C 12.65625 -0.59375 12.570312 -0.441406 12.4375 -0.296875 C 12.300781 -0.160156 12.097656 -0.046875 11.828125 0.046875 C 11.566406 0.148438 11.207031 0.203125 10.75 0.203125 C 10.28125 0.203125 9.914062 0.144531 9.65625 0.03125 C 9.394531 -0.0703125 9.195312 -0.195312 9.0625 -0.34375 C 8.925781 -0.488281 8.835938 -0.640625 8.796875 -0.796875 C 8.765625 -0.953125 8.75 -1.078125 8.75 -1.171875 L 8.75 -10.375 C 8.75 -10.5 8.726562 -10.625 8.6875 -10.75 C 8.65625 -10.875 8.601562 -10.988281 8.53125 -11.09375 C 8.46875 -11.195312 8.382812 -11.28125 8.28125 -11.34375 C 8.175781 -11.414062 8.054688 -11.453125 7.921875 -11.453125 C 7.679688 -11.453125 7.445312 -11.382812 7.21875 -11.25 C 7 -11.113281 6.789062 -10.957031 6.59375 -10.78125 C 6.394531 -10.601562 6.222656 -10.425781 6.078125 -10.25 C 5.941406 -10.082031 5.84375 -9.957031 5.78125 -9.875 L 5.78125 -1.140625 C 5.78125 -1.035156 5.757812 -0.90625 5.71875 -0.75 C 5.6875 -0.59375 5.601562 -0.441406 5.46875 -0.296875 C 5.34375 -0.160156 5.144531 -0.046875 4.875 0.046875 C 4.613281 0.148438 4.253906 0.203125 3.796875 0.203125 C 3.328125 0.203125 2.960938 0.144531 2.703125 0.03125 C 2.441406 -0.0703125 2.238281 -0.195312 2.09375 -0.34375 C 1.957031 -0.488281 1.867188 -0.640625 1.828125 -0.796875 C 1.796875 -0.953125 1.78125 -1.078125 1.78125 -1.171875 L 1.78125 -11.21875 C 1.78125 -11.476562 1.722656 -11.695312 1.609375 -11.875 C 1.492188 -12.0625 1.296875 -12.15625 1.015625 -12.15625 C 0.867188 -12.15625 0.742188 -12.128906 0.640625 -12.078125 C 0.535156 -12.023438 0.421875 -11.953125 0.296875 -11.859375 L 0.03125 -12.1875 C 0.226562 -12.351562 0.445312 -12.515625 0.6875 -12.671875 C 0.9375 -12.835938 1.203125 -12.976562 1.484375 -13.09375 C 1.773438 -13.21875 2.085938 -13.316406 2.421875 -13.390625 C 2.753906 -13.472656 3.101562 -13.515625 3.46875 -13.515625 C 4.03125 -13.515625 4.46875 -13.421875 4.78125 -13.234375 C 5.09375 -13.046875 5.320312 -12.820312 5.46875 -12.5625 C 5.613281 -12.300781 5.703125 -12.03125 5.734375 -11.75 C 5.765625 -11.46875 5.78125 -11.234375 5.78125 -11.046875 C 6.1875 -11.503906 6.625 -11.914062 7.09375 -12.28125 C 7.289062 -12.4375 7.503906 -12.585938 7.734375 -12.734375 C 7.960938 -12.878906 8.195312 -13.007812 8.4375 -13.125 C 8.675781 -13.25 8.925781 -13.34375 9.1875 -13.40625 C 9.445312 -13.476562 9.707031 -13.515625 9.96875 -13.515625 C 10.476562 -13.515625 10.910156 -13.421875 11.265625 -13.234375 C 11.617188 -13.054688 11.90625 -12.835938 12.125 -12.578125 C 12.34375 -12.328125 12.5 -12.0625 12.59375 -11.78125 C 12.695312 -11.5 12.75 -11.253906 12.75 -11.046875 C 13.164062 -11.503906 13.601562 -11.914062 14.0625 -12.28125 C 14.257812 -12.4375 14.46875 -12.585938 14.6875 -12.734375 C 14.914062 -12.878906 15.148438 -13.007812 15.390625 -13.125 C 15.640625 -13.25 15.894531 -13.34375 16.15625 -13.40625 C 16.414062 -13.476562 16.675781 -13.515625 16.9375 -13.515625 C 17.4375 -13.515625 17.863281 -13.421875 18.21875 -13.234375 C 18.570312 -13.046875 18.859375 -12.800781 19.078125 -12.5 C 19.296875 -12.195312 19.453125 -11.851562 19.546875 -11.46875 C 19.648438 -11.09375 19.703125 -10.710938 19.703125 -10.328125 L 19.703125 -2.265625 C 19.703125 -2.191406 19.707031 -2.109375 19.71875 -2.015625 C 19.726562 -1.921875 19.75 -1.832031 19.78125 -1.75 C 19.8125 -1.664062 19.863281 -1.597656 19.9375 -1.546875 C 20.019531 -1.492188 20.117188 -1.46875 20.234375 -1.46875 C 20.398438 -1.46875 20.546875 -1.523438 20.671875 -1.640625 C 20.804688 -1.765625 20.929688 -1.882812 21.046875 -2 L 21.359375 -1.734375 C 21.234375 -1.546875 21.070312 -1.34375 20.875 -1.125 C 20.675781 -0.90625 20.4375 -0.695312 20.15625 -0.5 C 19.882812 -0.300781 19.566406 -0.132812 19.203125 0 C 18.847656 0.132812 18.445312 0.203125 18 0.203125 C 17.613281 0.203125 17.28125 0.148438 17 0.046875 C 16.71875 -0.046875 16.476562 -0.175781 16.28125 -0.34375 C 16.09375 -0.507812 15.945312 -0.707031 15.84375 -0.9375 C 15.75 -1.175781 15.703125 -1.425781 15.703125 -1.6875 L 15.703125 -10.375 C 15.703125 -10.5 15.6875 -10.625 15.65625 -10.75 C 15.625 -10.875 15.570312 -10.988281 15.5 -11.09375 C 15.4375 -11.195312 15.351562 -11.28125 15.25 -11.34375 C 15.144531 -11.414062 15.023438 -11.453125 14.890625 -11.453125 C 14.648438 -11.453125 14.414062 -11.382812 14.1875 -11.25 C 13.957031 -11.113281 13.742188 -10.957031 13.546875 -10.78125 C 13.347656 -10.601562 13.179688 -10.425781 13.046875 -10.25 C 12.910156 -10.082031 12.8125 -9.957031 12.75 -9.875 Z M 12.75 -1.140625 "/></g></g></g><g clip-path="url(#535aeb353d)"><g fill="#000101" fill-opacity="1"><g transform="translate(98.15862, 23.140662)"><g><path d="M 7.484375 -6.75 C 7.484375 -6.96875 7.414062 -7.128906 7.28125 -7.234375 C 7.144531 -7.347656 6.96875 -7.40625 6.75 -7.40625 C 6.445312 -7.40625 6.15625 -7.335938 5.875 -7.203125 C 5.601562 -7.066406 5.363281 -6.863281 5.15625 -6.59375 C 4.945312 -6.320312 4.78125 -5.988281 4.65625 -5.59375 C 4.539062 -5.195312 4.484375 -4.738281 4.484375 -4.21875 C 4.484375 -3.71875 4.519531 -3.300781 4.59375 -2.96875 C 4.664062 -2.632812 4.765625 -2.367188 4.890625 -2.171875 C 5.015625 -1.984375 5.160156 -1.847656 5.328125 -1.765625 C 5.492188 -1.691406 5.664062 -1.65625 5.84375 -1.65625 C 6.070312 -1.65625 6.285156 -1.710938 6.484375 -1.828125 C 6.679688 -1.941406 6.851562 -2.085938 7 -2.265625 C 7.15625 -2.453125 7.273438 -2.660156 7.359375 -2.890625 C 7.441406 -3.117188 7.484375 -3.34375 7.484375 -3.5625 Z M 5.421875 -12.453125 C 5.117188 -12.453125 4.84375 -12.414062 4.59375 -12.34375 C 4.34375 -12.269531 4.125 -12.179688 3.9375 -12.078125 C 3.757812 -11.972656 3.617188 -11.859375 3.515625 -11.734375 C 3.410156 -11.609375 3.359375 -11.488281 3.359375 -11.375 C 3.359375 -11.25 3.425781 -11.15625 3.5625 -11.09375 C 3.695312 -11.039062 3.847656 -10.976562 4.015625 -10.90625 C 4.179688 -10.832031 4.328125 -10.726562 4.453125 -10.59375 C 4.585938 -10.457031 4.65625 -10.25 4.65625 -9.96875 C 4.65625 -9.789062 4.617188 -9.625 4.546875 -9.46875 C 4.472656 -9.320312 4.375 -9.1875 4.25 -9.0625 C 4.125 -8.945312 3.976562 -8.859375 3.8125 -8.796875 C 3.644531 -8.734375 3.46875 -8.703125 3.28125 -8.703125 C 2.789062 -8.703125 2.394531 -8.863281 2.09375 -9.1875 C 1.800781 -9.519531 1.65625 -9.960938 1.65625 -10.515625 C 1.65625 -11.035156 1.789062 -11.484375 2.0625 -11.859375 C 2.34375 -12.242188 2.707031 -12.554688 3.15625 -12.796875 C 3.601562 -13.046875 4.109375 -13.226562 4.671875 -13.34375 C 5.234375 -13.457031 5.800781 -13.515625 6.375 -13.515625 C 7.050781 -13.515625 7.695312 -13.441406 8.3125 -13.296875 C 8.925781 -13.148438 9.46875 -12.914062 9.9375 -12.59375 C 10.414062 -12.269531 10.796875 -11.859375 11.078125 -11.359375 C 11.359375 -10.867188 11.5 -10.273438 11.5 -9.578125 L 11.5 -2.21875 C 11.5 -2.132812 11.503906 -2.046875 11.515625 -1.953125 C 11.523438 -1.859375 11.546875 -1.769531 11.578125 -1.6875 C 11.609375 -1.613281 11.660156 -1.550781 11.734375 -1.5 C 11.804688 -1.445312 11.90625 -1.421875 12.03125 -1.421875 C 12.1875 -1.421875 12.332031 -1.476562 12.46875 -1.59375 C 12.601562 -1.707031 12.722656 -1.828125 12.828125 -1.953125 L 13.15625 -1.6875 C 13.019531 -1.5 12.859375 -1.296875 12.671875 -1.078125 C 12.492188 -0.859375 12.273438 -0.65625 12.015625 -0.46875 C 11.753906 -0.28125 11.453125 -0.125 11.109375 0 C 10.765625 0.132812 10.367188 0.203125 9.921875 0.203125 C 9.378906 0.203125 8.894531 0.0390625 8.46875 -0.28125 C 8.039062 -0.601562 7.757812 -1.101562 7.625 -1.78125 C 7.351562 -1.40625 7.066406 -1.09375 6.765625 -0.84375 C 6.460938 -0.59375 6.15625 -0.390625 5.84375 -0.234375 C 5.53125 -0.078125 5.210938 0.03125 4.890625 0.09375 C 4.578125 0.164062 4.265625 0.203125 3.953125 0.203125 C 3.535156 0.203125 3.128906 0.132812 2.734375 0 C 2.347656 -0.125 2 -0.328125 1.6875 -0.609375 C 1.375 -0.890625 1.125 -1.253906 0.9375 -1.703125 C 0.757812 -2.160156 0.671875 -2.710938 0.671875 -3.359375 C 0.671875 -4.148438 0.828125 -4.796875 1.140625 -5.296875 C 1.453125 -5.804688 1.859375 -6.226562 2.359375 -6.5625 C 2.867188 -6.90625 3.445312 -7.195312 4.09375 -7.4375 C 4.738281 -7.6875 5.398438 -7.945312 6.078125 -8.21875 C 6.585938 -8.414062 6.957031 -8.710938 7.1875 -9.109375 C 7.414062 -9.503906 7.53125 -9.910156 7.53125 -10.328125 C 7.53125 -10.972656 7.335938 -11.488281 6.953125 -11.875 C 6.578125 -12.257812 6.066406 -12.453125 5.421875 -12.453125 Z M 5.421875 -12.453125 "/></g></g></g></g></svg>